<svg width="32" height="32" viewBox="0 0 32 32" fill="none" xmlns="http://www.w3.org/2000/svg">
  <!-- Background Circle -->
  <circle cx="16" cy="16" r="16" fill="url(#gradient)" />
  
  <!-- Wise Character Head -->
  <circle cx="16" cy="12" r="5" fill="white" fill-opacity="0.95" />
  
  <!-- Simple Mustache -->
  <path d="M12 14C13 15 14 15 15 14C15 14 15.5 15 16 15C16.5 15 17 14 17 14C18 15 19 15 20 14" 
        stroke="#F59E0B" 
        stroke-width="1.5" 
        stroke-linecap="round" 
        fill="none" />
  
  <!-- Eyes -->
  <circle cx="14" cy="11" r="0.8" fill="#1F2937" />
  <circle cx="18" cy="11" r="0.8" fill="#1F2937" />
  
  <!-- Simple Cap -->
  <path d="M11 8C11 6 13 5 16 5C19 5 21 6 21 8L20 10L12 10Z" 
        fill="#8B5CF6" 
        fill-opacity="0.9" />
  
  <!-- Simple Book -->
  <rect x="8" y="20" width="16" height="10" rx="1" fill="white" fill-opacity="0.9" stroke="#8B5CF6" stroke-width="0.5" />
  <line x1="9" y1="23" x2="21" y2="23" stroke="#8B5CF6" stroke-width="0.5" />
  <line x1="9" y1="25" x2="19" y2="25" stroke="#10B981" stroke-width="0.5" />
  <line x1="9" y1="27" x2="22" y2="27" stroke="#EF4444" stroke-width="0.5" />
  
  <!-- Money Symbol -->
  <circle cx="6" cy="6" r="2" fill="#F59E0B" fill-opacity="0.8" />
  <text x="6" y="7.5" text-anchor="middle" font-family="Arial" font-size="2.5" fill="white" font-weight="bold">₹</text>
  
  <!-- Gradient Definition -->
  <defs>
    <linearGradient id="gradient" x1="0%" y1="0%" x2="100%" y2="100%">
      <stop offset="0%" style="stop-color:#8B5CF6;stop-opacity:1" />
      <stop offset="100%" style="stop-color:#6D28D9;stop-opacity:1" />
    </linearGradient>
  </defs>
</svg>